<?xml version="1.0" encoding="UTF-8"?>
<svg xmlns="http://www.w3.org/2000/svg" viewBox="0 0 800 520">
  
  <rect width="800" height="520" fill="#0a0a14"></rect>
  <g transform="translate(20, 20)">
    
    <rect x="0" y="0" width="760" height="420" rx="10" class="bg"></rect>
    
    <rect x="14" y="14" width="28" height="392" rx="5" class="panel2"></rect>
    <circle cx="28" cy="34" r="5" class="accent"></circle>
    <circle cx="28" cy="58" r="4" fill="#3a3147"></circle>
    <circle cx="28" cy="80" r="4" fill="#3a3147"></circle>
    <circle cx="28" cy="102" r="4" fill="#3a3147"></circle>
    <circle cx="28" cy="124" r="4" fill="#3a3147"></circle>
    
    <rect x="46" y="14" width="160" height="392" rx="5" class="panel"></rect>
    <rect x="60" y="30" width="120" height="6" rx="2" fill="#2a2438"></rect>
    <rect x="60" y="44" width="80" height="4" rx="1.5" fill="#2a2438"></rect>
    <rect x="60" y="68" width="136" height="32" rx="4" fill="rgba(203,166,247,0.08)" stroke="rgba(203,166,247,0.25)"></rect>
    <circle cx="68" cy="80" r="4" class="accent"></circle>
    <rect x="78" y="74" width="100" height="4" rx="1.5" fill="#3a3147"></rect>
    <rect x="78" y="84" width="70" height="3" rx="1" fill="#2a2438"></rect>
    <rect x="78" y="91" width="50" height="3" rx="1" fill="#2a2438"></rect>
    <rect x="60" y="108" width="136" height="32" rx="4" fill="#181826"></rect>
    <circle cx="68" cy="120" r="4" class="green"></circle>
    <rect x="78" y="114" width="90" height="4" rx="1.5" fill="#2a2438"></rect>
    <rect x="78" y="124" width="60" height="3" rx="1" fill="#1f1a2c"></rect>
    <rect x="60" y="148" width="136" height="32" rx="4" fill="#181826"></rect>
    <circle cx="68" cy="160" r="4" class="pink"></circle>
    <rect x="78" y="154" width="84" height="4" rx="1.5" fill="#2a2438"></rect>
    <rect x="78" y="164" width="58" height="3" rx="1" fill="#1f1a2c"></rect>
    <rect x="60" y="188" width="136" height="32" rx="4" fill="#181826"></rect>
    <circle cx="68" cy="200" r="4" fill="#3a3147"></circle>
    <rect x="78" y="194" width="80" height="4" rx="1.5" fill="#2a2438"></rect>
    
    <rect x="616" y="14" width="130" height="392" rx="5" class="panel"></rect>
    <rect x="628" y="30" width="100" height="6" rx="2" fill="#3a3147"></rect>
    <rect x="628" y="44" width="68" height="4" rx="1.5" fill="#2a2438"></rect>
    <rect x="628" y="68" width="106" height="44" rx="3" fill="#181826"></rect>
    <rect x="628" y="120" width="106" height="44" rx="3" fill="#181826"></rect>
    <rect x="628" y="172" width="106" height="80" rx="3" fill="#181826"></rect>
    <rect x="628" y="260" width="106" height="60" rx="3" fill="#181826"></rect>
    
    <rect x="210" y="14" width="402" height="26" rx="3" class="panel2"></rect>
    <rect x="218" y="20" width="78" height="14" rx="2" fill="rgba(203,166,247,0.12)"></rect>
    <rect x="302" y="20" width="78" height="14" rx="2" fill="#1f1a2c"></rect>
    
    <rect x="46" y="396" width="566" height="10" rx="2" class="panel2"></rect>
  
    
    <rect x="210" y="44" width="380" height="348" rx="5" class="terminal"></rect>
    <text x="222" y="66" class="label">terminal</text>
    <rect x="224" y="80" width="120" height="4" rx="1.5" fill="#2a2438"></rect>
    <rect x="224" y="90" width="200" height="4" rx="1.5" fill="#2a2438"></rect>
    <rect x="224" y="100" width="80" height="4" rx="1.5" fill="#2a2438"></rect>
    <rect x="224" y="110" width="160" height="4" rx="1.5" fill="#2a2438"></rect>
    <rect x="224" y="126" width="60" height="4" rx="1.5" fill="#2a2438"></rect>
    <rect x="224" y="136" width="120" height="4" rx="1.5" fill="#2a2438"></rect>
    <rect x="224" y="146" width="90" height="4" rx="1.5" fill="#2a2438"></rect>
  <rect x="594" y="44" width="18" height="348" rx="3" class="reveal"></rect>
   <text x="603" y="218" text-anchor="middle" transform="rotate(-90, 603, 218)" class="hint" font-size="10" letter-spacing="0.25em">SHOW EDITOR &amp; DIFF</text>
  </g>
  <text x="400" y="478" text-anchor="middle" class="title">hidden</text>
  <text x="400" y="500" text-anchor="middle" class="hint">dock omitted · vertical reveal tab on edge</text>
</svg>