<?xml version="1.0" encoding="UTF-8"?>
<svg xmlns="http://www.w3.org/2000/svg" viewBox="0 0 800 520">
  
  <rect width="800" height="520" fill="#0a0a14"></rect>
  <g transform="translate(20, 20)">
    
    <rect x="0" y="0" width="760" height="420" rx="10" class="bg"></rect>
    
    <rect x="14" y="14" width="28" height="392" rx="5" class="panel2"></rect>
    <circle cx="28" cy="34" r="5" class="accent"></circle>
    <circle cx="28" cy="58" r="4" fill="#3a3147"></circle>
    <circle cx="28" cy="80" r="4" fill="#3a3147"></circle>
    <circle cx="28" cy="102" r="4" fill="#3a3147"></circle>
    <circle cx="28" cy="124" r="4" fill="#3a3147"></circle>
    
    <rect x="46" y="14" width="160" height="392" rx="5" class="panel"></rect>
    <rect x="60" y="30" width="120" height="6" rx="2" fill="#2a2438"></rect>
    <rect x="60" y="44" width="80" height="4" rx="1.5" fill="#2a2438"></rect>
    <rect x="60" y="68" width="136" height="32" rx="4" fill="rgba(203,166,247,0.08)" stroke="rgba(203,166,247,0.25)"></rect>
    <circle cx="68" cy="80" r="4" class="accent"></circle>
    <rect x="78" y="74" width="100" height="4" rx="1.5" fill="#3a3147"></rect>
    <rect x="78" y="84" width="70" height="3" rx="1" fill="#2a2438"></rect>
    <rect x="78" y="91" width="50" height="3" rx="1" fill="#2a2438"></rect>
    <rect x="60" y="108" width="136" height="32" rx="4" fill="#181826"></rect>
    <circle cx="68" cy="120" r="4" class="green"></circle>
    <rect x="78" y="114" width="90" height="4" rx="1.5" fill="#2a2438"></rect>
    <rect x="78" y="124" width="60" height="3" rx="1" fill="#1f1a2c"></rect>
    <rect x="60" y="148" width="136" height="32" rx="4" fill="#181826"></rect>
    <circle cx="68" cy="160" r="4" class="pink"></circle>
    <rect x="78" y="154" width="84" height="4" rx="1.5" fill="#2a2438"></rect>
    <rect x="78" y="164" width="58" height="3" rx="1" fill="#1f1a2c"></rect>
    <rect x="60" y="188" width="136" height="32" rx="4" fill="#181826"></rect>
    <circle cx="68" cy="200" r="4" fill="#3a3147"></circle>
    <rect x="78" y="194" width="80" height="4" rx="1.5" fill="#2a2438"></rect>
    
    <rect x="616" y="14" width="130" height="392" rx="5" class="panel"></rect>
    <rect x="628" y="30" width="100" height="6" rx="2" fill="#3a3147"></rect>
    <rect x="628" y="44" width="68" height="4" rx="1.5" fill="#2a2438"></rect>
    <rect x="628" y="68" width="106" height="44" rx="3" fill="#181826"></rect>
    <rect x="628" y="120" width="106" height="44" rx="3" fill="#181826"></rect>
    <rect x="628" y="172" width="106" height="80" rx="3" fill="#181826"></rect>
    <rect x="628" y="260" width="106" height="60" rx="3" fill="#181826"></rect>
    
    <rect x="210" y="14" width="402" height="26" rx="3" class="panel2"></rect>
    <rect x="218" y="20" width="78" height="14" rx="2" fill="rgba(203,166,247,0.12)"></rect>
    <rect x="302" y="20" width="78" height="14" rx="2" fill="#1f1a2c"></rect>
    
    <rect x="46" y="396" width="566" height="10" rx="2" class="panel2"></rect>
  
    
    <rect x="210" y="44" width="160" height="348" rx="5" class="dock"></rect>
    <text x="222" y="66" class="label">editor · diff · files</text>
    <rect x="222" y="80" width="10" height="4" rx="1" class="ladder"></rect><rect x="238" y="80" width="30" height="4" rx="1.5" fill="#3a3147"></rect><rect x="222" y="92" width="10" height="4" rx="1" class="ladder"></rect><rect x="238" y="92" width="67" height="4" rx="1.5" fill="#3a3147"></rect><rect x="222" y="104" width="10" height="4" rx="1" class="ladder"></rect><rect x="238" y="104" width="104" height="4" rx="1.5" fill="#3a3147"></rect><rect x="222" y="116" width="10" height="4" rx="1" class="ladder"></rect><rect x="238" y="116" width="41" height="4" rx="1.5" fill="#3a3147"></rect><rect x="222" y="128" width="10" height="4" rx="1" class="ladder"></rect><rect x="238" y="128" width="78" height="4" rx="1.5" fill="#3a3147"></rect><rect x="222" y="140" width="10" height="4" rx="1" class="ladder"></rect><rect x="238" y="140" width="115" height="4" rx="1.5" fill="#3a3147"></rect><rect x="222" y="152" width="10" height="4" rx="1" class="ladder"></rect><rect x="238" y="152" width="52" height="4" rx="1.5" fill="#3a3147"></rect><rect x="222" y="164" width="10" height="4" rx="1" class="ladder"></rect><rect x="238" y="164" width="89" height="4" rx="1.5" fill="#3a3147"></rect><rect x="222" y="176" width="10" height="4" rx="1" class="ladder"></rect><rect x="238" y="176" width="116" height="4" rx="1.5" fill="#3a3147"></rect><rect x="222" y="188" width="10" height="4" rx="1" class="ladder"></rect><rect x="238" y="188" width="63" height="4" rx="1.5" fill="#3a3147"></rect><rect x="222" y="200" width="10" height="4" rx="1" class="ladder"></rect><rect x="238" y="200" width="100" height="4" rx="1.5" fill="#3a3147"></rect><rect x="222" y="212" width="10" height="4" rx="1" class="ladder"></rect><rect x="238" y="212" width="37" height="4" rx="1.5" fill="#3a3147"></rect><rect x="222" y="224" width="10" height="4" rx="1" class="ladder"></rect><rect x="238" y="224" width="74" height="4" rx="1.5" fill="#3a3147"></rect><rect x="222" y="236" width="10" height="4" rx="1" class="ladder"></rect><rect x="238" y="236" width="111" height="4" rx="1.5" fill="#3a3147"></rect><rect x="222" y="248" width="10" height="4" rx="1" class="ladder"></rect><rect x="238" y="248" width="48" height="4" rx="1.5" fill="#3a3147"></rect><rect x="222" y="260" width="10" height="4" rx="1" class="ladder"></rect><rect x="238" y="260" width="85" height="4" rx="1.5" fill="#3a3147"></rect><rect x="222" y="272" width="10" height="4" rx="1" class="ladder"></rect><rect x="238" y="272" width="116" height="4" rx="1.5" fill="#3a3147"></rect><rect x="222" y="284" width="10" height="4" rx="1" class="ladder"></rect><rect x="238" y="284" width="59" height="4" rx="1.5" fill="#3a3147"></rect><rect x="222" y="296" width="10" height="4" rx="1" class="ladder"></rect><rect x="238" y="296" width="96" height="4" rx="1.5" fill="#3a3147"></rect><rect x="222" y="308" width="10" height="4" rx="1" class="ladder"></rect><rect x="238" y="308" width="33" height="4" rx="1.5" fill="#3a3147"></rect><rect x="222" y="320" width="10" height="4" rx="1" class="ladder"></rect><rect x="238" y="320" width="70" height="4" rx="1.5" fill="#3a3147"></rect><rect x="222" y="332" width="10" height="4" rx="1" class="ladder"></rect><rect x="238" y="332" width="107" height="4" rx="1.5" fill="#3a3147"></rect><rect x="222" y="344" width="10" height="4" rx="1" class="ladder"></rect><rect x="238" y="344" width="44" height="4" rx="1.5" fill="#3a3147"></rect><rect x="222" y="356" width="10" height="4" rx="1" class="ladder"></rect><rect x="238" y="356" width="81" height="4" rx="1.5" fill="#3a3147"></rect>
  
    <rect x="374" y="44" width="238" height="348" rx="5" class="terminal"></rect>
    <text x="386" y="66" class="label">terminal</text>
    <rect x="388" y="80" width="120" height="4" rx="1.5" fill="#2a2438"></rect>
    <rect x="388" y="90" width="200" height="4" rx="1.5" fill="#2a2438"></rect>
    <rect x="388" y="100" width="80" height="4" rx="1.5" fill="#2a2438"></rect>
    <rect x="388" y="110" width="160" height="4" rx="1.5" fill="#2a2438"></rect>
    <rect x="388" y="126" width="60" height="4" rx="1.5" fill="#2a2438"></rect>
    <rect x="388" y="136" width="120" height="4" rx="1.5" fill="#2a2438"></rect>
    <rect x="388" y="146" width="90" height="4" rx="1.5" fill="#2a2438"></rect>
  
  </g>
  <text x="400" y="478" text-anchor="middle" class="title">left</text>
  <text x="400" y="500" text-anchor="middle" class="hint">flex-direction: row · order [dock, terminal]</text>
</svg>